<svg xmlns="http://www.w3.org/2000/svg" xmlns:xlink="http://www.w3.org/1999/xlink" id="Layer_1" data-name="Layer 1" viewBox="0 0 512 512"><defs><style>.cls-1{fill:url(#linear-gradient)}.cls-2{fill:url(#linear-gradient-2)}.cls-3{fill:url(#linear-gradient-3)}</style><linearGradient id="linear-gradient" x1="401.51" x2="91.26" y1="-16233.83" y2="-15923.58" gradientTransform="matrix(1, 0, 0, -1, 0, -15870)" gradientUnits="userSpaceOnUse"><stop offset="0" stop-color="#f58b1f"/><stop offset=".49" stop-color="#ed6723"/><stop offset="1" stop-color="#ee3e30"/></linearGradient><linearGradient id="linear-gradient-2" x1="-16.66" x2="442.85" y1="-15926.82" y2="-16250.52" gradientTransform="matrix(1, 0, 0, -1, 0, -15870)" gradientUnits="userSpaceOnUse"><stop offset="0" stop-color="#c41e51"/><stop offset=".17" stop-color="#b41d4a"/><stop offset=".43" stop-color="#a21b43"/><stop offset=".7" stop-color="#971a3e"/><stop offset="1" stop-color="#931a3d"/></linearGradient><linearGradient id="linear-gradient-3" x1="258.49" x2="258.49" y1="-16214.63" y2="-16070.6" xlink:href="#linear-gradient-2"/></defs><title>Artboard 2</title><g id="_Group_" data-name="&lt;Group&gt;"><path id="_Path_" d="M384.64,89.68a182,182,0,0,0-279.28,26.59A140.53,140.53,0,0,1,343.93,264.32a98.42,98.42,0,0,1-9.69,15,141.32,141.32,0,0,1-24.32,25.42L256,358.66l-58.47,58.47L256,475.61,384.64,347A181.93,181.93,0,0,0,384.64,89.68Z" class="cls-1" data-name="&lt;Path&gt;"/><path id="_Path_2" d="M361.85,195.67a140.53,140.53,0,0,0-256.48-79.41l-1.06,1.56c-1.05,1.58-2.08,3.17-3.07,4.79L101,123a182,182,0,0,0,26.34,224L168,387.57l58.47-58.47-40.61-40.61a99.23,99.23,0,1,1,158.11-24.17A139.87,139.87,0,0,0,361.85,195.67Z" class="cls-2" data-name="&lt;Path&gt;"/><path id="_Path_3" d="M320.52,220.82a62.06,62.06,0,1,1-6.66-27.94A61.24,61.24,0,0,1,320.52,220.82Z" class="cls-3" data-name="&lt;Path&gt;"/></g></svg>